/* XPM */
static char *wdsXPMbulb[] = {
/* width height num_colors chars_per_pixel */
"    16    16        4            1",
/* colors */
". c None",
"# c #000000",
"x c #888888",
"o c #ffffff",
/* pixels */
"................",
"......###.......",
".....#ooo#......",
"....#ooooo#.....",
"...#ooooooo#....",
"...#ooooooo#....",
"...#ooooooo#....",
"....#ooooo#.....",
".....#ooo#......",
".....#ooo#......",
".....#####......",
".....#xxx#......",
".....#####......",
".....#xxx#......",
"......###.......",
"................"
};
