/* XPM */
static char *wdsXPMforbid[] = {
/* width height num_colors chars_per_pixel */
"    16    16        2            1",
/* colors */
". c None",
"# c #000000",
/* pixels */
"................",
".....######.....",
"...##########...",
"..############..",
"..####....####..",
".######....####.",
".###.###....###.",
".###..###...###.",
".###...###..###.",
".###....###.###.",
".####....######.",
"..####....####..",
"..############..",
"...##########...",
".....######.....",
"................"
};
