/* XPM */
static char *wdsXPMimi[] = {
/* width height num_colors chars_per_pixel */
"    16    16        3            1",
/* colors */
". c None",
"+ c #777777",
"# c #000000",
/* pixels */
"......+##+......",
".....##..##.....",
"....+#....#+....",
"....+#....#+....",
"....+#....#+....",
".....##..##.....",
"..+#+.+##+.+#+..",
".#####.##.#####.",
"+#...+####+...#+",
"##.....##.....##",
"+#++##.##.##++#+",
"+#####.##.#####+",
".+####.##.####+.",
".....+####+.....",
"...+###++###+...",
"..+##+....+##+.."
};
